<svg xmlns="http://www.w3.org/2000/svg" viewBox="0 0 800.96 800.96"><defs><style>.cls-1{fill:#fff;}</style></defs><g id="Layer_2" data-name="Layer 2"><g id="Layer_1-2" data-name="Layer 1"><circle cx="400.48" cy="400.48" r="400.48"/><path class="cls-1" d="M550.48,328.48A149.81,149.81,0,0,0,510.73,226.8,112.39,112.39,0,0,0,550.48,141a37.5,37.5,0,1,0-75,0A37.5,37.5,0,0,1,438,178.48h-37.5a150,150,0,0,0,0,300,75,75,0,1,1-75,75,37.51,37.51,0,1,0-75,0A150,150,0,1,0,499.69,441,149.59,149.59,0,0,0,550.48,328.48Zm-225,0a75,75,0,1,1,75,75A75,75,0,0,1,325.49,328.48Z"/></g></g></svg>